HIERARCHY
ROOT Hips
{
	OFFSET 54.768600 -28.876116 95.688896
	CHANNELS 6 Xposition Yposition Zposition Xrotation Yrotation Zrotation
	JOINT spine
	{
		OFFSET 0.000000 -0.458069 7.965683
		CHANNELS 3 Xrotation Yrotation Zrotation
		JOINT spine1
		{
			OFFSET 0.000000 -0.000002 10.243103
			CHANNELS 3 Xrotation Yrotation Zrotation
			JOINT spine2
			{
				OFFSET 0.000000 -0.000002 9.814751
				CHANNELS 3 Xrotation Yrotation Zrotation
				JOINT Neck
				{
					OFFSET 0.000000 -1.201384 25.198608
					CHANNELS 3 Xrotation Yrotation Zrotation
					JOINT Head
					{
						OFFSET 0.000000 0.000000 7.613144
						CHANNELS 3 Xrotation Yrotation Zrotation
						End Site
						{
							OFFSET 0.000000 6.077326 18.428101
						}
					}
				}
				JOINT RightShoulder
				{
					OFFSET -4.132698 0.575451 10.599213
					CHANNELS 3 Xrotation Yrotation Zrotation
					JOINT RightArm
					{
						OFFSET 0.000000 -0.000004 13.901794
						CHANNELS 3 Xrotation Yrotation Zrotation
						JOINT RightArmRoll
						{
							OFFSET 0.000000 0.000000 7.017883
							CHANNELS 3 Xrotation Yrotation Zrotation
							JOINT RightForeArm
							{
								OFFSET 0.000000 -0.000004 20.440598
								CHANNELS 3 Xrotation Yrotation Zrotation
								JOINT RightForeArmRoll
								{
									OFFSET 0.000000 -0.000002 7.875153
									CHANNELS 3 Xrotation Yrotation Zrotation
									JOINT RightHand
									{
										OFFSET 0.000000 -0.000002 15.803696
										CHANNELS 3 Xrotation Yrotation Zrotation
										End Site
										{
											OFFSET 0.000000 0.000000 0.100006
										}
									}
								}
							}
						}
					}
				}
				JOINT LeftShoulder
				{
					OFFSET 4.132698 0.575451 10.599213
					CHANNELS 3 Xrotation Yrotation Zrotation
					JOINT LeftArm
					{
						OFFSET 0.000000 -0.000004 13.901794
						CHANNELS 3 Xrotation Yrotation Zrotation
						JOINT LeftArmRoll
						{
							OFFSET 0.000000 0.000000 7.017883
							CHANNELS 3 Xrotation Yrotation Zrotation
							JOINT LeftForeArm
							{
								OFFSET 0.000000 -0.000004 20.440598
								CHANNELS 3 Xrotation Yrotation Zrotation
								JOINT LeftForeArmRoll
								{
									OFFSET 0.000000 -0.000002 7.875153
									CHANNELS 3 Xrotation Yrotation Zrotation
									JOINT LeftHand
									{
										OFFSET 0.000000 -0.000002 15.803696
										CHANNELS 3 Xrotation Yrotation Zrotation
										End Site
										{
											OFFSET 0.000000 0.000000 0.100006
										}
									}
								}
							}
						}
					}
				}
			}
		}
	}
	JOINT RightUpLeg
	{
		OFFSET -7.060478 1.086100 -1.294701
		CHANNELS 3 Xrotation Yrotation Zrotation
		JOINT RightUpLegRoll
		{
			OFFSET 0.000000 -0.000004 18.530800
			CHANNELS 3 Xrotation Yrotation Zrotation
			JOINT RightLeg
			{
				OFFSET 0.000000 0.000004 -22.947601
				CHANNELS 3 Xrotation Yrotation Zrotation
				JOINT RightLegRoll
				{
					OFFSET 0.000000 -0.000004 23.022598
					CHANNELS 3 Xrotation Yrotation Zrotation
					JOINT RightFoot
					{
						OFFSET 0.000000 -0.000002 19.162514
						CHANNELS 3 Xrotation Yrotation Zrotation
						JOINT RightToeBase
						{
							OFFSET 0.000000 -0.000004 16.018799
							CHANNELS 3 Xrotation Yrotation Zrotation
							End Site
							{
								OFFSET 0.006790 0.894207 7.757812
							}
						}
					}
				}
			}
		}
	}
	JOINT LeftUpLeg
	{
		OFFSET 7.060478 1.086100 -1.294701
		CHANNELS 3 Xrotation Yrotation Zrotation
		JOINT LeftUpLegRoll
		{
			OFFSET 0.000000 -0.000004 18.530899
			CHANNELS 3 Xrotation Yrotation Zrotation
			JOINT LeftLeg
			{
				OFFSET 0.000000 -0.000004 22.947510
				CHANNELS 3 Xrotation Yrotation Zrotation
				JOINT LeftLegRoll
				{
					OFFSET 0.000000 -0.000004 23.235504
					CHANNELS 3 Xrotation Yrotation Zrotation
					JOINT LeftFoot
					{
						OFFSET 0.000000 -0.000002 18.949600
						CHANNELS 3 Xrotation Yrotation Zrotation
						JOINT LeftToeBase
						{
							OFFSET 0.000000 -0.000004 16.018799
							CHANNELS 3 Xrotation Yrotation Zrotation
							End Site
							{
								OFFSET -0.030430 0.894207 7.757812
							}
						}
					}
				}
			}
		}
	}
}
MOTION
Frames: 7
Frame Time: 0.041667
51.374500 11.912886 56.718800 -6.410696 -1.128580 7.416065 1.464430 -0.095273 -0.263109 6.931271 -0.199788 -0.522454 8.576326 -0.206213 -0.520021 3.249770 -0.724116 -2.039476 5.124756 0.676708 -2.079948 -6.323120 -65.974348 -8.034151 -58.056908 -131.866228 -63.028228 0.000001 0.000010 -0.000003 42.085706 -10.826626 2.478545 -0.000002 0.000002 -3.006118 -4.999628 -7.998742 0.000008 -5.799437 67.104607 7.531474 -59.140538 131.999020 65.603434 0.000002 0.000004 -0.000001 42.000650 11.381086 -3.211931 0.000001 -0.000007 3.004799 -4.999615 7.998731 -0.000010 -79.767915 -167.405245 -1.088474 -179.999991 0.000005 -1.006000 97.081823 4.826685 0.126156 -0.000004 0.000004 1.275040 61.747840 4.351542 8.052725 25.457759 -7.355621 0.003081 -79.605404 175.169845 1.985787 -0.000051 -0.000005 -1.220920 -83.062525 -4.210747 -0.637854 -0.000001 0.000004 -1.447940 60.817917 -4.662453 -7.336657 25.456952 7.355613 -0.014783 
51.368599 11.943190 56.716698 -6.412383 -1.130753 7.415217 1.464772 -0.095384 -0.264412 6.931943 -0.200148 -0.525049 8.577007 -0.206802 -0.522609 3.247419 -0.708759 -2.032517 5.132287 0.669319 -2.073814 -6.302668 -65.950292 -8.009061 -58.016699 -131.867566 -62.993571 0.000001 0.000009 -0.000004 42.100439 -10.822871 2.476613 -0.000000 0.000000 -3.006121 -4.999628 -7.998739 0.000007 -5.806835 67.105850 7.539903 -59.138817 131.993665 65.605476 0.000003 0.000004 -0.000001 42.004092 11.382940 -3.212311 0.000002 -0.000005 3.004801 -4.999614 7.998730 -0.000010 -79.769581 -167.405464 -1.089867 -179.999991 0.000005 -1.006000 97.086406 4.828155 0.122865 -0.000004 0.000004 1.276449 61.750579 4.352937 8.050983 25.457758 -7.355619 0.003080 -79.597139 175.166936 1.978084 -0.000051 -0.000004 -1.220310 -83.059540 -4.209678 -0.633908 -0.000000 0.000004 -1.445591 60.806647 -4.651218 -7.360156 25.456950 7.355615 -0.014781 
51.367100 11.921488 56.712078 -6.413980 -1.132439 7.413815 1.464992 -0.095632 -0.265700 6.932382 -0.200785 -0.527610 8.577437 -0.207682 -0.525161 3.246758 -0.691363 -2.025052 5.138534 0.660421 -2.067218 -6.278621 -65.924863 -7.979778 -57.973642 -131.869233 -62.955151 0.000003 0.000010 -0.000004 42.115493 -10.818532 2.474358 -0.000001 0.000003 -3.006119 -4.999630 -7.998741 0.000008 -5.813413 67.108719 7.547547 -59.138052 131.987791 65.607505 0.000004 0.000004 -0.000001 42.007166 11.385014 -3.212767 0.000001 -0.000006 3.004799 -4.999615 7.998730 -0.000009 -79.771050 -167.406734 -1.089357 -179.999991 0.000005 -1.005002 97.091146 4.829375 0.120594 -0.000004 0.000004 1.277879 61.753318 4.354429 8.049061 25.457759 -7.355619 0.003080 -79.588561 175.162797 1.969635 -0.000050 -0.000004 -1.219580 -83.056562 -4.208435 -0.629872 -0.000000 0.000004 -1.443021 60.794551 -4.639141 -7.385380 25.456950 7.355615 -0.014782 
51.363998 11.936491 56.716087 -6.415501 -1.133787 7.412043 1.465132 -0.095976 -0.266979 6.932645 -0.201617 -0.530147 8.577699 -0.208763 -0.527685 3.247272 -0.672535 -2.017244 5.143874 0.650468 -2.060284 -6.252013 -65.898341 -7.947522 -57.928972 -131.870927 -62.914676 0.000001 0.000009 -0.000004 42.130670 -10.813714 2.471789 -0.000001 -0.000000 -3.006120 -4.999627 -7.998742 0.000007 -5.819386 67.112715 7.554596 -59.140217 131.980469 65.612436 0.000004 0.000004 -0.000001 42.009946 11.387210 -3.213244 0.000001 -0.000005 3.004799 -4.999614 7.998730 -0.000010 -79.772696 -167.408251 -1.089576 -179.999991 0.000005 -1.005002 97.095886 4.830414 0.118320 -0.000004 0.000005 1.279330 61.756180 4.355980 8.047084 25.457763 -7.355619 0.003081 -79.579852 175.157934 1.960224 -0.000051 -0.000004 -1.218780 -83.053598 -4.207020 -0.625650 -0.000000 0.000004 -1.440310 60.781970 -4.626462 -7.411802 25.456950 7.355612 -0.014781 
51.364300 11.925688 56.719597 -6.416983 -1.134947 7.410052 1.465213 -0.096373 -0.268252 6.932804 -0.202559 -0.532672 8.577860 -0.209962 -0.530196 3.248462 -0.652893 -2.009234 5.148681 0.639911 -2.053157 -6.224006 -65.871280 -7.913619 -57.883893 -131.872334 -62.873715 0.000000 0.000009 -0.000004 42.146017 -10.808716 2.469160 -0.000004 0.000002 -3.006120 -4.999623 -7.998745 0.000006 -5.825020 67.117325 7.561305 -59.142410 131.973134 65.616794 0.000004 0.000004 -0.000001 42.012545 11.389516 -3.213738 0.000003 -0.000005 3.004801 -4.999613 7.998732 -0.000009 -79.774403 -167.410272 -1.089247 -179.999991 0.000005 -1.005002 97.100886 4.831259 0.115051 -0.000004 0.000004 1.280790 61.759035 4.357571 8.044939 25.457761 -7.355619 0.003081 -79.571144 175.152415 1.951443 -0.000051 -0.000003 -1.217920 -83.050599 -4.205539 -0.621129 -0.000001 0.000004 -1.437520 60.769040 -4.613439 -7.438910 25.456950 7.355616 -0.014781 
51.368099 11.931494 56.718307 -6.418460 -1.136056 7.408000 1.465293 -0.096784 -0.269523 6.932943 -0.203528 -0.535193 8.578009 -0.211190 -0.532704 3.249807 -0.633045 -2.001176 5.153370 0.629205 -2.045984 -6.195694 -65.844014 -7.879361 -57.838711 -131.873700 -62.832584 0.000001 0.000009 -0.000004 42.161440 -10.803551 2.466410 -0.000001 0.000002 -3.006119 -4.999626 -7.998740 0.000007 -5.830602 67.122147 7.567973 -59.145538 131.965293 65.622204 0.000003 0.000004 -0.000002 42.015120 11.391750 -3.214173 0.000002 -0.000005 3.004800 -4.999615 7.998731 -0.000010 -79.776323 -167.412103 -1.089923 -179.999991 0.000006 -1.005002 97.105722 4.832173 0.112809 -0.000004 0.000004 1.282249 61.761890 4.359168 8.042878 25.457761 -7.355619 0.003080 -79.562415 175.146677 1.943150 -0.000051 -0.000004 -1.217050 -83.047683 -4.204006 -0.616811 -0.000000 0.000003 -1.434710 60.756008 -4.600323 -7.466194 25.456950 7.355613 -0.014780 
51.363701 11.927588 56.711288 -6.419948 -1.137265 7.406062 1.465381 -0.097169 -0.270798 6.933134 -0.204442 -0.537721 8.578190 -0.212359 -0.535217 3.250837 -0.613604 -1.993219 5.158325 0.618801 -2.038910 -6.168188 -65.817117 -7.846041 -57.793830 -131.875325 -62.791889 0.000002 0.000010 -0.000004 42.176688 -10.798564 2.463738 -0.000001 0.000001 -3.006119 -4.999628 -7.998740 0.000008 -5.836324 67.126546 7.574775 -59.147635 131.957875 65.626684 0.000003 0.000004 -0.000001 42.017715 11.394059 -3.214679 0.000002 -0.000006 3.004799 -4.999613 7.998732 -0.000009 -79.777948 -167.414015 -1.089480 -179.999991 0.000005 -1.005003 97.110632 4.833140 0.109536 -0.000004 0.000004 1.283710 61.764649 4.360760 8.040765 25.457759 -7.355619 0.003079 -79.553699 175.141364 1.934089 -0.000051 -0.000003 -1.216210 -83.044712 -4.202545 -0.612493 -0.000001 0.000004 -1.431931 60.743201 -4.587360 -7.493214 25.456952 7.355613 -0.014782 
